# xmcd CD database file
#
# Track frame offsets:
#	150
#	14390
#	29747
#	44275
#	58714
#	72238
#	89575
#	107724
#	124236
#	141673
#	156062
#	168510
#	180089
#
# Disc length: 2611 seconds
#
# Revision: 0
# Processed by: cddbd v1.5.2PL0 Copyright (c) Steve Scherf et al.
# Submitted via: CDex 1.70beta2
#
DISCID=b70a310d
DTITLE=Ferguson, Lindsay - Cdn. - OVM - Sound
DYEAR=2007
DGENRE=Country
TTITLE0=My Alibi
TTITLE1=Bloodstream
TTITLE2=Wine Song
TTITLE3=Livin' 4 The Moment
TTITLE4=Song n Dance
TTITLE5=Touch Of Sin
TTITLE6=No Epitome
TTITLE7=8th Wonder
TTITLE8=Breakthrough
TTITLE9=Wanted
TTITLE10=C'mon Papa
TTITLE11=A Little Longer
TTITLE12=1000 Kisses
EXTD=YEAR: 2007
EXTT0=
EXTT1=
EXTT2=
EXTT3=
EXTT4=
EXTT5=
EXTT6=
EXTT7=
EXTT8=
EXTT9=
EXTT10=
EXTT11=
EXTT12=
PLAYORDER=
